<svg xmlns="http://www.w3.org/2000/svg" xmlns:xlink="http://www.w3.org/1999/xlink" width="500" zoomAndPan="magnify" viewBox="0 0 375 374.999991" height="500" preserveAspectRatio="xMidYMid meet" version="1.2"><defs><clipPath id="02ab7ac3be"><path d="M 149.042969 147.832031 L 226.292969 147.832031 L 226.292969 225 L 149.042969 225 Z M 149.042969 147.832031 "/></clipPath></defs><g id="b0431026f6"><g clip-rule="nonzero" clip-path="url(#02ab7ac3be)"><path style=" stroke:none;fill-rule:nonzero;fill:#f5a415;fill-opacity:1;" d="M 182.835938 224.0625 C 203.699219 226.882812 223.015625 212.179688 225.835938 191.289062 C 226.296875 187.894531 226.296875 184.449219 225.835938 181.054688 C 225.78125 180.601562 225.527344 180.191406 225.148438 179.933594 C 224.875 179.75 224.5625 179.65625 224.238281 179.65625 C 224.113281 179.65625 223.980469 179.671875 223.855469 179.703125 C 222.957031 179.921875 222.082031 180.207031 221.199219 180.460938 C 221.769531 173.203125 219.882812 165.996094 215.738281 159.941406 C 215.425781 159.484375 214.914062 159.238281 214.40625 159.238281 C 214.117188 159.238281 213.828125 159.316406 213.5625 159.476562 C 210.121094 161.578125 207.042969 164.207031 204.417969 167.21875 C 202.460938 158.777344 196.640625 151.640625 188.601562 148.074219 C 188.394531 147.980469 188.171875 147.933594 187.945312 147.933594 C 187.722656 147.933594 187.503906 147.980469 187.292969 148.074219 C 179.257812 151.636719 173.429688 158.777344 171.476562 167.21875 C 168.847656 164.207031 165.765625 161.578125 162.328125 159.476562 C 162.066406 159.316406 161.773438 159.238281 161.480469 159.238281 C 160.972656 159.238281 160.460938 159.488281 160.152344 159.941406 C 156.003906 166.007812 154.125 173.207031 154.699219 180.457031 C 153.808594 180.203125 152.929688 179.917969 152.035156 179.703125 C 151.585938 179.59375 151.117188 179.675781 150.742188 179.933594 C 150.367188 180.191406 150.113281 180.597656 150.050781 181.050781 C 148.683594 191.171875 151.339844 201.21875 157.53125 209.34375 C 163.722656 217.46875 172.710938 222.695312 182.835938 224.0625 Z M 222.636719 190.859375 C 220.261719 208.402344 205.207031 221.179688 187.96875 221.179688 C 186.414062 221.179688 184.839844 221.078125 183.261719 220.863281 C 182.023438 220.695312 180.808594 220.464844 179.613281 220.175781 C 187.773438 202.128906 203.730469 188.519531 222.832031 183.300781 C 223.039062 185.820312 222.976562 188.351562 222.636719 190.859375 Z M 187.945312 178.523438 C 192.953125 181.457031 196.835938 185.949219 199.058594 191.3125 C 195.019531 194.277344 191.285156 197.652344 187.964844 201.410156 C 184.636719 197.640625 180.882812 194.269531 176.832031 191.308594 C 179.054688 185.945312 182.941406 181.453125 187.945312 178.523438 Z M 213.921875 163.085938 C 217.277344 168.613281 218.636719 175.058594 217.839844 181.488281 C 212.128906 183.441406 206.738281 186.136719 201.773438 189.441406 C 200.984375 187.652344 200.035156 185.949219 198.925781 184.371094 C 201.140625 175.722656 206.527344 168.066406 213.921875 163.085938 Z M 187.945312 151.328125 C 195.554688 154.96875 200.753906 162.304688 201.714844 170.703125 C 199.449219 173.949219 197.671875 177.527344 196.460938 181.3125 C 194.242188 178.902344 191.644531 176.835938 188.714844 175.246094 C 188.476562 175.113281 188.210938 175.050781 187.945312 175.050781 C 187.679688 175.050781 187.414062 175.113281 187.171875 175.246094 C 184.246094 176.835938 181.652344 178.902344 179.4375 181.3125 C 178.21875 177.523438 176.441406 173.945312 174.171875 170.703125 C 175.128906 162.308594 180.339844 154.972656 187.945312 151.328125 Z M 161.972656 163.085938 C 169.363281 168.0625 174.75 175.714844 176.96875 184.367188 C 175.855469 185.949219 174.90625 187.648438 174.117188 189.4375 C 169.125 186.128906 163.722656 183.4375 158.050781 181.492188 C 157.257812 175.0625 158.613281 168.617188 161.972656 163.085938 Z M 153.058594 183.304688 C 165.707031 186.761719 177.253906 194.011719 185.855469 203.910156 C 182.117188 208.5625 178.945312 213.714844 176.488281 219.261719 C 170.015625 217.035156 164.34375 212.957031 160.101562 207.390625 C 154.808594 200.4375 152.339844 191.949219 153.058594 183.304688 Z M 153.058594 183.304688 "/></g></g></svg>