<svg xmlns="http://www.w3.org/2000/svg" xmlns:xlink="http://www.w3.org/1999/xlink" width="500" zoomAndPan="magnify" viewBox="0 0 375 374.999991" height="500" preserveAspectRatio="xMidYMid meet" version="1.2"><defs><clipPath id="1f4d9815c7"><rect x="0" width="86" y="0" height="27"/></clipPath><clipPath id="492dea3b52"><path d="M 142 154.007812 L 233.808594 154.007812 L 233.808594 246 L 142 246 Z M 142 154.007812 "/></clipPath></defs><g id="c21f01f12c"><g transform="matrix(1,0,0,1,144,122)"><g clip-path="url(#1f4d9815c7)"><g style="fill:#f5a415;fill-opacity:1;"><g transform="translate(6.263802, 22.525915)"><path style="stroke:none" d="M 8.8125 -4.625 L 7.390625 -3.875 L 4.203125 -8.84375 L 5.171875 -2.71875 L 4.25 -2.234375 L -0.234375 -6.515625 L 2.046875 -1.078125 L 0.609375 -0.3125 L -2.4375 -7.546875 L -0.390625 -8.625 L 3.359375 -5.046875 L 2.578125 -10.171875 L 4.625 -11.25 Z M 8.8125 -4.625 "/></g></g><g style="fill:#f5a415;fill-opacity:1;"><g transform="translate(19.342775, 16.222035)"><path style="stroke:none" d="M 5.96875 -1.796875 L 4.96875 -3.1875 L 1.8125 -2.234375 L 1.75 -0.53125 L 0.15625 -0.046875 L 0.65625 -8.359375 L 2.546875 -8.9375 L 7.5625 -2.28125 Z M 1.875 -3.671875 L 4.109375 -4.34375 L 2.046875 -7.171875 Z M 1.875 -3.671875 "/></g></g><g style="fill:#f5a415;fill-opacity:1;"><g transform="translate(30.99559, 13.13904)"><path style="stroke:none" d="M 2.390625 -1.78125 L 4.828125 -2.125 L 5.03125 -0.703125 L 1 -0.140625 L -0.078125 -7.875 L 1.515625 -8.09375 Z M 2.390625 -1.78125 "/></g></g><g style="fill:#f5a415;fill-opacity:1;"><g transform="translate(40.3004, 12.102309)"><path style="stroke:none" d="M 5.515625 -7.8125 L 5.53125 -6.375 L 3.6875 -6.375 L 3.6875 0 L 2.078125 0 L 2.078125 -6.375 L 0.21875 -6.375 L 0.203125 -7.8125 Z M 5.515625 -7.8125 "/></g></g><g style="fill:#f5a415;fill-opacity:1;"><g transform="translate(50.049687, 12.312997)"><path style="stroke:none" d="M 6.15625 0.96875 L 5.859375 -0.71875 L 2.609375 -1.21875 L 1.8125 0.28125 L 0.15625 0.03125 L 4.203125 -7.25 L 6.15625 -6.9375 L 7.796875 1.21875 Z M 3.28125 -2.5 L 5.578125 -2.140625 L 4.953125 -5.578125 Z M 3.28125 -2.5 "/></g></g><g style="fill:#f5a415;fill-opacity:1;"><g transform="translate(61.843561, 14.507666)"><path style="stroke:none" d="M 0.96875 0.328125 L 3.484375 -7.0625 L 6.140625 -6.15625 C 6.734375 -5.957031 7.21875 -5.691406 7.59375 -5.359375 C 7.976562 -5.035156 8.257812 -4.660156 8.4375 -4.234375 C 8.625 -3.816406 8.710938 -3.351562 8.703125 -2.84375 C 8.703125 -2.34375 8.609375 -1.816406 8.421875 -1.265625 C 8.234375 -0.710938 7.988281 -0.238281 7.6875 0.15625 C 7.382812 0.5625 7.03125 0.878906 6.625 1.109375 C 6.21875 1.335938 5.765625 1.460938 5.265625 1.484375 C 4.765625 1.515625 4.21875 1.429688 3.625 1.234375 Z M 2.953125 -0.515625 L 4.015625 -0.15625 C 4.703125 0.0820312 5.269531 0.0546875 5.71875 -0.234375 C 6.175781 -0.535156 6.535156 -1.0625 6.796875 -1.8125 C 7.046875 -2.5625 7.082031 -3.191406 6.90625 -3.703125 C 6.726562 -4.210938 6.296875 -4.585938 5.609375 -4.828125 L 4.546875 -5.1875 Z M 2.953125 -0.515625 "/></g></g><g style="fill:#f5a415;fill-opacity:1;"><g transform="translate(73.095925, 18.696414)"><path style="stroke:none" d="M 5.46875 3 L 5.734375 1.3125 L 2.859375 -0.265625 L 1.609375 0.875 L 0.140625 0.078125 L 6.40625 -5.40625 L 8.15625 -4.453125 L 6.921875 3.78125 Z M 3.9375 -1.234375 L 5.96875 -0.125 L 6.546875 -3.578125 Z M 3.9375 -1.234375 "/></g></g></g></g><g clip-rule="nonzero" clip-path="url(#492dea3b52)"><path style=" stroke:none;fill-rule:nonzero;fill:#f5a415;fill-opacity:1;" d="M 181.929688 245.347656 C 206.835938 248.71875 229.898438 231.167969 233.261719 206.222656 C 233.8125 202.171875 233.8125 198.0625 233.261719 194.003906 C 233.199219 193.46875 232.894531 192.980469 232.441406 192.671875 C 232.117188 192.449219 231.742188 192.335938 231.359375 192.335938 C 231.207031 192.335938 231.046875 192.355469 230.898438 192.394531 C 229.828125 192.652344 228.78125 192.996094 227.726562 193.296875 C 228.410156 184.636719 226.160156 176.035156 221.207031 168.800781 C 220.835938 168.257812 220.226562 167.964844 219.621094 167.964844 C 219.273438 167.964844 218.925781 168.058594 218.613281 168.246094 C 214.503906 170.753906 210.828125 173.894531 207.695312 177.488281 C 205.359375 167.414062 198.414062 158.890625 188.8125 154.636719 C 188.566406 154.523438 188.300781 154.46875 188.03125 154.46875 C 187.765625 154.46875 187.507812 154.523438 187.253906 154.636719 C 177.660156 158.886719 170.703125 167.414062 168.375 177.488281 C 165.230469 173.894531 161.554688 170.753906 157.449219 168.246094 C 157.136719 168.058594 156.785156 167.964844 156.441406 167.964844 C 155.832031 167.964844 155.21875 168.261719 154.851562 168.800781 C 149.902344 176.042969 147.660156 184.640625 148.339844 193.292969 C 147.28125 192.992188 146.230469 192.652344 145.160156 192.394531 C 144.625 192.265625 144.066406 192.363281 143.617188 192.667969 C 143.171875 192.976562 142.871094 193.460938 142.792969 194.003906 C 141.160156 206.085938 144.328125 218.082031 151.722656 227.78125 C 159.117188 237.480469 169.84375 243.71875 181.929688 245.347656 Z M 229.445312 205.710938 C 226.609375 226.65625 208.636719 241.910156 188.0625 241.910156 C 186.203125 241.910156 184.324219 241.785156 182.441406 241.527344 C 180.960938 241.332031 179.507812 241.054688 178.085938 240.707031 C 187.828125 219.164062 206.871094 202.921875 229.675781 196.691406 C 229.925781 199.695312 229.851562 202.722656 229.445312 205.710938 Z M 188.03125 190.988281 C 194.011719 194.488281 198.644531 199.851562 201.296875 206.253906 C 196.472656 209.792969 192.015625 213.820312 188.054688 218.308594 C 184.082031 213.808594 179.601562 209.785156 174.765625 206.246094 C 177.417969 199.847656 182.054688 194.480469 188.03125 190.988281 Z M 219.039062 172.558594 C 223.046875 179.152344 224.667969 186.851562 223.71875 194.527344 C 216.902344 196.859375 210.46875 200.074219 204.535156 204.019531 C 203.597656 201.882812 202.464844 199.851562 201.140625 197.964844 C 203.785156 187.644531 210.210938 178.5 219.039062 172.558594 Z M 188.03125 158.519531 C 197.117188 162.867188 203.324219 171.625 204.46875 181.648438 C 201.765625 185.527344 199.640625 189.796875 198.195312 194.316406 C 195.550781 191.4375 192.445312 188.972656 188.949219 187.074219 C 188.664062 186.914062 188.347656 186.839844 188.03125 186.839844 C 187.714844 186.839844 187.398438 186.914062 187.109375 187.074219 C 183.613281 188.972656 180.519531 191.4375 177.871094 194.3125 C 176.417969 189.789062 174.296875 185.523438 171.589844 181.648438 C 172.734375 171.632812 178.953125 162.871094 188.03125 158.519531 Z M 157.023438 172.558594 C 165.847656 178.5 172.277344 187.636719 174.925781 197.960938 C 173.597656 199.851562 172.464844 201.882812 171.523438 204.011719 C 165.5625 200.0625 159.117188 196.851562 152.34375 194.53125 C 151.394531 186.855469 153.011719 179.160156 157.023438 172.558594 Z M 146.386719 196.691406 C 161.480469 200.820312 175.269531 209.476562 185.539062 221.292969 C 181.070312 226.847656 177.289062 232.996094 174.355469 239.617188 C 166.628906 236.960938 159.859375 232.089844 154.792969 225.449219 C 148.472656 217.148438 145.527344 207.011719 146.386719 196.691406 Z M 146.386719 196.691406 "/></g></g></svg>